M48
; DRILL file KiCad 10.0.1-10.0.1~ubuntu22.04.1 date 2026-06-10T12:31:19
; FORMAT={-:-/ absolute / metric / decimal}
; #@! TF.CreationDate,2026-06-10T12:31:19+09:30
; #@! TF.GenerationSoftware,Kicad,Pcbnew,10.0.1-10.0.1~ubuntu22.04.1
; #@! TF.FileFunction,MixedPlating,1,2
FMAT,2
METRIC
; #@! TA.AperFunction,Plated,PTH,ComponentDrill
T1C0.750
; #@! TA.AperFunction,Plated,PTH,ComponentDrill
T2C0.800
; #@! TA.AperFunction,Plated,PTH,ComponentDrill
T3C1.000
%
G90
G05
T1
X105.66Y-88.62
X105.66Y-94.41
X106.93Y-88.62
X106.93Y-94.41
X108.2Y-88.62
X108.2Y-94.41
T2
X111.76Y-87.39
X111.76Y-91.44
X121.92Y-87.39
X121.92Y-91.44
T3
X138.45Y-68.58
X138.45Y-71.12
X138.45Y-73.66
X138.45Y-76.2
X138.45Y-78.74
X138.45Y-81.28
X138.45Y-83.82
X138.45Y-86.36
X138.45Y-88.9
X138.45Y-91.44
X143.1Y-68.58
X143.1Y-71.12
X143.1Y-73.66
X143.1Y-76.2
X143.1Y-78.74
X143.1Y-81.28
X143.1Y-83.82
X143.1Y-86.36
X143.1Y-90.98
X143.1Y-93.52
X143.1Y-96.06
X143.1Y-98.6
X147.75Y-68.58
X147.75Y-71.12
X147.75Y-73.66
X147.75Y-76.2
X147.75Y-78.74
X147.75Y-81.28
X147.75Y-83.82
X147.75Y-86.36
X147.75Y-90.98
X147.75Y-93.52
X147.75Y-96.06
X147.75Y-98.6
X152.4Y-68.58
X152.4Y-71.12
X152.4Y-73.66
X152.4Y-76.2
X152.4Y-78.74
X152.4Y-81.28
X152.4Y-83.82
X152.4Y-86.36
X152.4Y-90.98
X152.4Y-93.52
X152.4Y-96.06
X152.4Y-98.6
X157.05Y-68.58
X157.05Y-71.12
X157.05Y-73.66
X157.05Y-76.2
X157.05Y-78.74
X157.05Y-81.28
X157.05Y-83.82
X157.05Y-86.36
X157.05Y-90.98
X157.05Y-93.52
X161.7Y-68.58
X161.7Y-71.12
X161.7Y-73.66
X161.7Y-76.2
X161.7Y-78.74
X161.7Y-81.28
X161.7Y-83.82
X161.7Y-86.36
X161.7Y-90.98
X161.7Y-93.52
X166.35Y-68.58
X166.35Y-71.12
X166.35Y-73.66
X166.35Y-76.2
X166.35Y-78.74
X166.35Y-81.28
X166.35Y-83.82
X166.35Y-86.36
X166.35Y-90.98
X166.35Y-93.52
X171.0Y-68.58
X171.0Y-71.12
X171.0Y-73.66
X171.0Y-76.2
X171.0Y-78.74
X171.0Y-81.28
M30
